<?xml version="1.0" encoding="iso-8859-1"?>
<!-- Uploaded to: SVG Repo, www.svgrepo.com, Generator: SVG Repo Mixer Tools -->
<svg version="1.1" id="Layer_1" xmlns="http://www.w3.org/2000/svg" xmlns:xlink="http://www.w3.org/1999/xlink" 
	 viewBox="0 0 512 512" xml:space="preserve">
<path style="fill:#F2F2F2;" d="M500.927,0H11.073C6.704,0,3.164,3.541,3.164,7.909v496.181c0,4.368,3.54,7.909,7.909,7.909h489.854
	c4.369,0,7.909-3.541,7.909-7.909V7.909C508.836,3.541,505.296,0,500.927,0z"/>
<g>
	<rect x="62.315" y="183.381" style="fill:#F3B41B;" width="29.134" height="29.134"/>
	<rect x="125.59" y="183.381" style="fill:#F3B41B;" width="29.134" height="29.134"/>
	<rect x="62.315" y="263.087" style="fill:#F3B41B;" width="29.134" height="29.134"/>
	<rect x="125.59" y="337.298" style="fill:#F3B41B;" width="29.134" height="29.134"/>
	<rect x="199.021" y="337.298" style="fill:#F3B41B;" width="29.134" height="29.134"/>
</g>
<path style="fill:#EF9D3C;" d="M64.857,512H11.073c-4.368,0-7.909-3.541-7.909-7.909V285.792c0-4.368,3.541-7.909,7.909-7.909
	h53.784c4.368,0,7.909,3.541,7.909,7.909v218.299C72.766,508.459,69.225,512,64.857,512z"/>
<path style="fill:#E2771E;" d="M12.655,505.673c-1.747,0-3.164-1.416-3.164-3.164V278.042c-3.61,0.733-6.327,3.924-6.327,7.75
	v218.299c0,4.368,3.541,7.909,7.909,7.909h53.784c3.826,0,7.017-2.718,7.75-6.327H12.655z"/>
<path style="fill:#F7D04A;" d="M64.857,277.883H11.073c-4.368,0-7.909-3.541-7.909-7.909V51.675c0-4.368,3.541-7.909,7.909-7.909
	h53.784c4.368,0,7.909,3.541,7.909,7.909v218.299C72.766,274.341,69.225,277.883,64.857,277.883z"/>
<path style="fill:#F3B41B;" d="M12.655,271.555c-1.747,0-3.164-1.416-3.164-3.164V43.924c-3.61,0.733-6.327,3.924-6.327,7.75
	v218.299c0,4.368,3.541,7.909,7.909,7.909h53.784c3.826,0,7.017-2.718,7.75-6.327H12.655z"/>
<path style="fill:#F7D04A;" d="M204.062,349.594h-53.784c-4.368,0-7.909-3.541-7.909-7.909V123.386c0-4.368,3.541-7.909,7.909-7.909
	h53.784c4.368,0,7.909,3.541,7.909,7.909v218.299C211.971,346.053,208.43,349.594,204.062,349.594z"/>
<path style="fill:#F3B41B;" d="M151.86,343.267c-1.747,0-3.164-1.416-3.164-3.164V115.636c-3.61,0.733-6.327,3.924-6.327,7.75
	v218.299c0,4.368,3.541,7.909,7.909,7.909h53.784c3.826,0,7.017-2.718,7.75-6.327H151.86z"/>
<path style="fill:#F7D04A;" d="M273.664,512h-53.784c-4.368,0-7.909-3.541-7.909-7.909V285.792c0-4.368,3.541-7.909,7.909-7.909
	h53.784c4.368,0,7.909,3.541,7.909,7.909v218.299C281.574,508.459,278.032,512,273.664,512z"/>
<path style="fill:#F3B41B;" d="M221.462,505.673c-1.747,0-3.164-1.416-3.164-3.164V278.042c-3.61,0.733-6.327,3.924-6.327,7.75
	v218.299c0,4.368,3.541,7.909,7.909,7.909h53.784c3.826,0,7.017-2.718,7.75-6.327H221.462z"/>
<path style="fill:#F7D04A;" d="M134.459,512H80.676c-4.368,0-7.909-3.541-7.909-7.909V207.753c0-4.368,3.541-7.909,7.909-7.909
	h53.784c4.368,0,7.909,3.541,7.909,7.909v296.338C142.369,508.459,138.827,512,134.459,512z"/>
<path style="fill:#F3B41B;" d="M82.257,505.673c-1.747,0-3.164-1.416-3.164-3.164V199.843c-3.61,0.733-6.327,3.924-6.327,7.75
	v296.497c0,4.368,3.541,7.909,7.909,7.909h53.784c3.826,0,7.017-2.718,7.75-6.327H82.257z"/>
<path style="fill:#EF9D3C;" d="M134.459,199.843H80.676c-4.368,0-7.909-3.541-7.909-7.909V22.674c0-4.368,3.541-7.909,7.909-7.909
	h53.784c4.368,0,7.909,3.541,7.909,7.909v169.261C142.369,196.302,138.827,199.843,134.459,199.843z"/>
<path style="fill:#E2771E;" d="M82.257,193.516c-1.747,0-3.164-1.416-3.164-3.164V14.923c-3.61,0.733-6.327,3.924-6.327,7.75
	v169.261c0,4.368,3.541,7.909,7.909,7.909h53.784c3.826,0,7.017-2.718,7.75-6.327H82.257z"/>
<path style="fill:#EF9D3C;" d="M204.062,512h-53.784c-4.368,0-7.909-3.541-7.909-7.909V357.504c0-4.368,3.541-7.909,7.909-7.909
	h53.784c4.368,0,7.909,3.541,7.909,7.909v146.587C211.971,508.459,208.43,512,204.062,512z"/>
<path style="fill:#E2771E;" d="M151.86,505.673c-1.747,0-3.164-1.416-3.164-3.164V349.594c-3.61,0.733-6.327,3.924-6.327,7.75
	v146.746c0,4.368,3.541,7.909,7.909,7.909h53.784c3.826,0,7.017-2.718,7.75-6.327H151.86z"/>
<g>
	<path style="fill:#EB6836;" d="M342.739,338.521h97.022c3.614,0,6.768-2.45,7.664-5.951c0.87-3.405,21.316-71.303,21.316-120.072
		c0-137.439-48.436-147.877-77.308-148.544c-0.121-0.003-0.243-0.003-0.365,0c-28.872,0.668-77.308,11.106-77.308,148.544
		c0,48.769,20.446,116.666,21.316,120.072C335.971,336.071,339.125,338.521,342.739,338.521z"/>
	<path style="fill:#EB6836;" d="M441.87,352.231H340.63c-4.369,0-7.909,3.541-7.909,7.909v49.565
		c0,30.529,24.838,55.366,55.366,55.366h6.328c30.528,0,55.366-24.836,55.366-55.366V360.14
		C449.78,355.772,446.239,352.231,441.87,352.231z"/>
</g>
<g>
	<path style="fill:#C74B38;" d="M353.51,332.57c-0.87-3.405-21.316-71.302-21.316-120.072c0-123.906,39.365-142.488,68.274-147.642
		c-3.157-0.563-6.191-0.836-9.035-0.903c-0.121-0.003-0.243-0.003-0.365,0c-28.872,0.668-77.308,11.106-77.308,148.544
		c0,48.769,20.446,116.666,21.316,120.072c0.895,3.501,4.05,5.951,7.664,5.951h18.433C357.56,338.521,354.405,336.071,353.51,332.57
		z"/>
	<path style="fill:#C74B38;" d="M351.154,409.705V360.14c0-4.368,3.54-7.909,7.909-7.909H340.63c-4.369,0-7.909,3.541-7.909,7.909
		v49.565c0,30.529,24.838,55.366,55.366,55.366h6.328c2.046,0,4.064-0.12,6.053-0.337
		C372.777,461.708,351.154,438.189,351.154,409.705z"/>
</g>
</svg>